<?xml version="1.0" encoding="utf-8"?>
<!-- Generator: Adobe Illustrator 26.5.0, SVG Export Plug-In . SVG Version: 6.00 Build 0)  -->
<svg version="1.1" id="Ebene_1" xmlns="http://www.w3.org/2000/svg" xmlns:xlink="http://www.w3.org/1999/xlink" x="0px" y="0px"
	 viewBox="0 0 467.8 442.6" enable-background="new 0 0 467.8 442.6" xml:space="preserve">
<g>
	<g>
		
			<linearGradient id="SVGID_1_" gradientUnits="userSpaceOnUse" x1="374.7907" y1="406.847" x2="54.7906" y2="82.847" gradientTransform="matrix(1 0 0 -1 0 456.6222)">
			<stop  offset="0" style="stop-color:#E93068"/>
			<stop  offset="1" style="stop-color:#FA2EE8"/>
		</linearGradient>
		<path fill="url(#SVGID_1_)" d="M215.5,252.7c-47.1-78-38.7-174,14-242c-37.7,0-75.8,10-110.4,30.9
			C17.8,102.8-14.7,234.4,46.5,335.7c61.2,101.3,153.2,111.2,254.4,50.1c21.6-13.1,41.9-28.3,59.9-45.3
			C303.9,343.5,253.7,315.9,215.5,252.7z"/>
		
			<linearGradient id="SVGID_00000035514750502607868770000018094148303643663002_" gradientUnits="userSpaceOnUse" x1="397.4414" y1="384.4759" x2="77.4414" y2="60.4759" gradientTransform="matrix(1 0 0 -1 0 456.6222)">
			<stop  offset="0" style="stop-color:#E93068"/>
			<stop  offset="1" style="stop-color:#FA2EE8"/>
		</linearGradient>
		<path fill="url(#SVGID_00000035514750502607868770000018094148303643663002_)" d="M413.1,114.1C372.8,47.5,302,10.6,229.5,10.7
			c-52.6,68-61.1,164-14,242c38.2,63.2,88.4,90.8,145.3,87.8C426.9,278.2,461.2,193.7,413.1,114.1z"/>
		
			<linearGradient id="SVGID_00000152977368831828117380000003511856576452512391_" gradientUnits="userSpaceOnUse" x1="184.5818" y1="175.69" x2="604.6377" y2="175.69">
			<stop  offset="0" style="stop-color:#E93068"/>
			<stop  offset="1" style="stop-color:#FA2EE8"/>
		</linearGradient>
		<path opacity="0.31" fill="url(#SVGID_00000152977368831828117380000003511856576452512391_)" d="M413.1,114.1
			C372.8,47.5,302,10.6,229.5,10.7c-52.6,68-61.1,164-14,242c38.2,63.2,88.4,90.8,145.3,87.8C426.9,278.2,461.2,193.7,413.1,114.1z"
			/>
	</g>
</g>
<path d="M340.3,190.9h-31V75.4h-179v115.5h-32c-15.2,0-27.5,12.3-27.5,27.5v79.5h297v-79.5C367.8,203.2,355.4,190.9,340.3,190.9z
	 M145.3,90.4h149v100.5h-149V90.4z"/>
<linearGradient id="SVGID_00000157291104022857792650000007802469585439475364_" gradientUnits="userSpaceOnUse" x1="283.4971" y1="316.5628" x2="326.9742" y2="268.2256" gradientTransform="matrix(1 0 0 -1 0 456.6222)">
	<stop  offset="0" style="stop-color:#E93068"/>
	<stop  offset="1" style="stop-color:#FA2EE8"/>
</linearGradient>
<path fill="url(#SVGID_00000157291104022857792650000007802469585439475364_)" d="M280.3,192.4v-43c0-11,9-20,20-20h15
	c11,0,20,9,20,20v43H280.3z"/>
<path fill="#FFFFFF" d="M211,246.4c-15.9,0-27.7-5.3-35.4-16c-7.6-10.8-11.4-25.9-11.4-45.4c0-19.5,3.8-34.6,11.4-45.2
	c7.7-10.8,19.5-16.2,35.4-16.2c6.1,0,11.5,0.9,16.1,2.6c4.8,1.6,8.8,3.9,12.2,6.8s6.2,6.5,8.3,10.7c2.3,4.2,4,8.9,5.3,14.1
	l-23.8,5.8c-0.7-2.8-1.5-5.4-2.4-7.8c-0.9-2.4-2.1-4.4-3.6-6.1c-1.4-1.7-3.1-3-5.3-3.9c-2-1-4.5-1.5-7.5-1.5
	c-6.9,0-11.8,2.7-14.8,8.2c-2.8,5.3-4.2,12.8-4.2,22.3v20.7c0,9.5,1.4,17,4.2,22.4c2.9,5.3,7.9,8,14.8,8c5.9,0,10.1-1.8,12.8-5.4
	c2.7-3.6,4.7-8.3,5.9-13.9l23.8,5.8c-1.2,5.2-3,9.9-5.3,14.1c-2.2,4.2-4.9,7.8-8.3,10.9c-3.4,2.9-7.5,5.2-12.2,6.8
	C222.5,245.6,217.1,246.4,211,246.4z M268.7,244.4V125.7h45.9c5.8,0,10.9,0.9,15.5,2.7c4.5,1.7,8.3,4.2,11.4,7.5
	c3.2,3.3,5.6,7.3,7.1,11.9c1.6,4.6,2.4,9.9,2.4,15.6s-0.8,11-2.4,15.6c-1.6,4.6-4,8.6-7.1,11.9c-3.1,3.3-6.9,5.8-11.4,7.7
	c-4.5,1.7-9.7,2.6-15.5,2.6h-20.2v43.2H268.7z M294.4,180.6h13.8c6,0,10.1-1.1,12.4-3.4c2.4-2.3,3.6-6,3.6-11.2v-5.1
	c0-5.2-1.2-9-3.6-11.2c-2.3-2.3-6.4-3.4-12.4-3.4h-13.8V180.6z"/>
<g>
	
		<linearGradient id="SVGID_00000085961144717474276730000003595428462926080426_" gradientUnits="userSpaceOnUse" x1="256.6331" y1="213.4914" x2="180.9851" y2="99.1574" gradientTransform="matrix(1 0 0 -1 0 456.6222)">
		<stop  offset="0" style="stop-color:#E93068"/>
		<stop  offset="1" style="stop-color:#FA2EE8"/>
	</linearGradient>
	<rect x="145.3" y="267.4" fill="url(#SVGID_00000085961144717474276730000003595428462926080426_)" width="149" height="63"/>
	<path d="M130.3,252.4v93h179v-93H130.3z M301.8,337.9h-164v-78h164V337.9z"/>
	<path d="M137.8,337.9h164v-78h-164V337.9z M145.3,267.4h149v63h-149V267.4z"/>
</g>
<linearGradient id="SVGID_00000147901256123991708900000007642216585176211349_" gradientUnits="userSpaceOnUse" x1="339.1456" y1="241.5172" x2="325.9279" y2="221.5402">
	<stop  offset="0" style="stop-color:#E93068"/>
	<stop  offset="1" style="stop-color:#FA2EE8"/>
</linearGradient>
<circle fill="url(#SVGID_00000147901256123991708900000007642216585176211349_)" cx="332.7" cy="231.8" r="13.6"/>
</svg>
