<svg width="64" height="64" viewBox="0 0 64 64" fill="none" xmlns="http://www.w3.org/2000/svg">
<rect width="64" height="64" rx="15" fill="url(#paint0_linear_60_678)"/>
<path d="M32.0001 8C28.0891 8 24.9942 8.31826 22.8499 8.64425C20.0678 9.0672 17.9921 11.4069 17.6695 14.3835C17.6496 14.5674 17.6297 14.7584 17.6096 14.9564C17.6032 15.0204 17.6 15.0847 17.6 15.1491V20.5109C17.6 21.4979 18.3434 22.2982 19.2604 22.2982H44.7396C45.6567 22.2982 46.4 21.4979 46.4 20.5109V15.1491C46.4 15.0847 46.3968 15.0204 46.3904 14.9564C46.3704 14.7584 46.3504 14.5674 46.3305 14.3835C46.0079 11.4069 43.9322 9.0672 41.1502 8.64425C39.0058 8.31826 35.9109 8 32.0001 8Z" fill="white"/>
<g filter="url(#filter0_di_60_678)">
<path fill-rule="evenodd" clip-rule="evenodd" d="M32 18.213C23.3681 18.213 17.7728 18.3668 14.4727 18.5063C11.4493 18.6341 8.89644 20.7256 8.51477 23.6887C8.24819 25.7583 8 28.5984 8 32.0005C8 35.083 8.10294 37.6968 8.22132 39.6835C8.41323 42.9046 11.0969 45.3719 14.4326 45.5037C16.4851 45.5847 19.3058 45.6691 23 45.7247C25.5666 45.7633 17 54.5 32 53.5C46.5 54 38.8238 45.76 41.5 45.7169C44.9499 45.6614 47.6085 45.581 49.5675 45.5037C52.903 45.3719 55.5868 42.9046 55.7787 39.6835C55.8971 37.6968 56 35.083 56 32.0005C56 28.9185 55.8971 26.3043 55.7788 24.3168C55.5868 21.0939 52.9005 18.6256 49.5632 18.495C46.0845 18.3586 40.4011 18.213 32 18.213Z" fill="#CA719F"/>
</g>
<g filter="url(#filter1_dd_60_678)">
<path d="M44.7045 35.3273C45.1435 35.3072 45.572 35.4616 45.889 35.7531C46.2062 36.0447 46.3836 36.4484 46.3802 36.8693C46.3331 42.9737 46.203 47.1385 46.0844 49.7707C45.9547 52.6447 43.8019 55.0968 40.7191 55.4797C38.5524 55.7488 35.5717 56.0002 31.9984 56.0002C28.4245 56.0002 25.4445 55.7489 23.2787 55.4797C20.198 55.0967 18.047 52.6467 17.9164 49.7746C17.7968 47.1424 17.665 42.9766 17.6176 36.8693C17.6142 36.4484 17.7918 36.0447 18.1088 35.7531C18.4259 35.4615 18.8542 35.3072 19.2933 35.3273C22.3889 35.4695 26.5303 35.5754 32.0013 35.5754C37.4698 35.5754 41.6093 35.4694 44.7045 35.3273ZM25.6 47.8303C24.7166 47.8305 24.0004 48.5166 24.0004 49.3625C24.0004 50.2084 24.7166 50.8945 25.6 50.8947H38.4008C39.2842 50.8946 40.0004 50.2084 40.0004 49.3625C40.0003 48.5166 39.2842 47.8304 38.4008 47.8303H25.6ZM25.6 40.6818C24.7167 40.6821 24.0006 41.3674 24.0004 42.2131C24.0004 43.059 24.7166 43.7451 25.6 43.7453H38.4008C39.2842 43.7451 40.0004 43.059 40.0004 42.2131C40.0001 41.3673 39.2841 40.682 38.4008 40.6818H25.6Z" fill="white"/>
</g>
<g filter="url(#filter2_dd_60_678)">
<path fill-rule="evenodd" clip-rule="evenodd" d="M41.6 27.9153C41.6 26.7872 42.5551 25.8727 43.7333 25.8727H44.8C45.9782 25.8727 46.9333 26.7872 46.9333 27.9153C46.9333 29.0434 45.9782 29.9579 44.8 29.9579H43.7333C42.5551 29.9579 41.6 29.0434 41.6 27.9153Z" fill="white"/>
</g>
<defs>
<filter id="filter0_di_60_678" x="6" y="17.213" width="52" height="39.3667" filterUnits="userSpaceOnUse" color-interpolation-filters="sRGB">
<feFlood flood-opacity="0" result="BackgroundImageFix"/>
<feColorMatrix in="SourceAlpha" type="matrix" values="0 0 0 0 0 0 0 0 0 0 0 0 0 0 0 0 0 0 127 0" result="hardAlpha"/>
<feOffset dy="1"/>
<feGaussianBlur stdDeviation="1"/>
<feColorMatrix type="matrix" values="0 0 0 0 0 0 0 0 0 0 0 0 0 0 0 0 0 0 0.2 0"/>
<feBlend mode="normal" in2="BackgroundImageFix" result="effect1_dropShadow_60_678"/>
<feBlend mode="normal" in="SourceGraphic" in2="effect1_dropShadow_60_678" result="shape"/>
<feColorMatrix in="SourceAlpha" type="matrix" values="0 0 0 0 0 0 0 0 0 0 0 0 0 0 0 0 0 0 127 0" result="hardAlpha"/>
<feOffset dy="1"/>
<feGaussianBlur stdDeviation="0.5"/>
<feComposite in2="hardAlpha" operator="arithmetic" k2="-1" k3="1"/>
<feColorMatrix type="matrix" values="0 0 0 0 0.941176 0 0 0 0 0.466667 0 0 0 0 0.835294 0 0 0 1 0"/>
<feBlend mode="normal" in2="shape" result="effect2_innerShadow_60_678"/>
</filter>
<filter id="filter1_dd_60_678" x="15.6175" y="34.3256" width="32.7628" height="24.6746" filterUnits="userSpaceOnUse" color-interpolation-filters="sRGB">
<feFlood flood-opacity="0" result="BackgroundImageFix"/>
<feColorMatrix in="SourceAlpha" type="matrix" values="0 0 0 0 0 0 0 0 0 0 0 0 0 0 0 0 0 0 127 0" result="hardAlpha"/>
<feOffset dy="1"/>
<feGaussianBlur stdDeviation="1"/>
<feColorMatrix type="matrix" values="0 0 0 0 0 0 0 0 0 0 0 0 0 0 0 0 0 0 0.2 0"/>
<feBlend mode="normal" in2="BackgroundImageFix" result="effect1_dropShadow_60_678"/>
<feColorMatrix in="SourceAlpha" type="matrix" values="0 0 0 0 0 0 0 0 0 0 0 0 0 0 0 0 0 0 127 0" result="hardAlpha"/>
<feOffset dy="1"/>
<feGaussianBlur stdDeviation="0.5"/>
<feColorMatrix type="matrix" values="0 0 0 0 0 0 0 0 0 0 0 0 0 0 0 0 0 0 0.1 0"/>
<feBlend mode="normal" in2="effect1_dropShadow_60_678" result="effect2_dropShadow_60_678"/>
<feBlend mode="normal" in="SourceGraphic" in2="effect2_dropShadow_60_678" result="shape"/>
</filter>
<filter id="filter2_dd_60_678" x="39.6" y="24.8727" width="9.33334" height="8.08519" filterUnits="userSpaceOnUse" color-interpolation-filters="sRGB">
<feFlood flood-opacity="0" result="BackgroundImageFix"/>
<feColorMatrix in="SourceAlpha" type="matrix" values="0 0 0 0 0 0 0 0 0 0 0 0 0 0 0 0 0 0 127 0" result="hardAlpha"/>
<feOffset dy="1"/>
<feGaussianBlur stdDeviation="1"/>
<feColorMatrix type="matrix" values="0 0 0 0 0 0 0 0 0 0 0 0 0 0 0 0 0 0 0.2 0"/>
<feBlend mode="normal" in2="BackgroundImageFix" result="effect1_dropShadow_60_678"/>
<feColorMatrix in="SourceAlpha" type="matrix" values="0 0 0 0 0 0 0 0 0 0 0 0 0 0 0 0 0 0 127 0" result="hardAlpha"/>
<feOffset dy="1"/>
<feGaussianBlur stdDeviation="0.5"/>
<feColorMatrix type="matrix" values="0 0 0 0 0 0 0 0 0 0 0 0 0 0 0 0 0 0 0.1 0"/>
<feBlend mode="normal" in2="effect1_dropShadow_60_678" result="effect2_dropShadow_60_678"/>
<feBlend mode="normal" in="SourceGraphic" in2="effect2_dropShadow_60_678" result="shape"/>
</filter>
<linearGradient id="paint0_linear_60_678" x1="32" y1="64" x2="32" y2="3.779e-07" gradientUnits="userSpaceOnUse">
<stop stop-color="#E93068"/>
<stop offset="0.384975" stop-color="#EC307E"/>
<stop offset="1" stop-color="#FA2EE8"/>
</linearGradient>
</defs>
</svg>
